<svg xmlns="http://www.w3.org/2000/svg" version="1.1" xmlns:xlink="http://www.w3.org/1999/xlink" xmlns:svgjs="http://svgjs.dev/svgjs" width="1440" height="560" preserveAspectRatio="none" viewBox="0 0 1440 560"><g mask="url(&quot;#SvgjsMask1006&quot;)" fill="none"><rect width="1440" height="560" x="0" y="0" fill="rgba(13, 49, 0, 1)"></rect><path d="M92.38227477668545-70.88007055600175L-54.55383602273304 10.567945645382878 173.83029097807008 76.05604024341673z" fill="rgba(28, 136, 142, 0.4)" class="triangle-float1"></path><path d="M-16.55184693870612-13.578145955978528L-58.50778540128826 90.26644575550165 118.23707139722308 101.27805759363477z" fill="rgba(28, 136, 142, 0.4)" class="triangle-float1"></path><path d="M-75.67173685990608 65.20738478167809L51.11947261751965 175.42530165208325 161.3373894879248 48.63409217465754 34.5461800104991-61.58382469574764z" fill="rgba(28, 136, 142, 0.4)" class="triangle-float2"></path><path d="M1472.765274854214 27.15841385833822L1284.1461939749665-9.692005940884933 1336.0610490299578 150.08548879670084z" fill="rgba(28, 136, 142, 0.4)" class="triangle-float3"></path><path d="M1447.9916050779898 171.443911497163L1494.2986808552457 9.951946579525412 1332.806715937608-36.355129197730406 1286.499640160352 125.13683571990717z" fill="rgba(28, 136, 142, 0.4)" class="triangle-float3"></path><path d="M1404.157,183.435C1440.715,184.205,1471.472,157.167,1487.799,124.448C1502.49,95.008,1495.38,61.478,1479.354,32.743C1462.799,3.059,1438.137,-24.777,1404.157,-25.53C1369.166,-26.306,1339.355,-1.644,1322.954,29.275C1307.578,58.26,1311.112,92.019,1326.403,121.049C1343.001,152.56,1368.55,182.685,1404.157,183.435" fill="rgba(28, 136, 142, 0.4)" class="triangle-float3"></path><path d="M-42.09011249310165 592.3207339944188L125.67964934566675 601.1131746432334-33.297671844287066 424.55097215565036z" fill="rgba(28, 136, 142, 0.4)" class="triangle-float2"></path><path d="M10.855644305711351 628.033097885886L163.11535252786848 557.0332299134484-60.14422366672623 475.7733896637289z" fill="rgba(28, 136, 142, 0.4)" class="triangle-float2"></path><path d="M115.558,707.792C167.841,712.483,221.414,685.189,245.016,638.301C266.951,594.725,245.731,544.54,217.906,504.468C194.457,470.698,156.586,454.51,115.558,451.862C67.943,448.789,11.041,448.121,-12.554,489.593C-36.031,530.858,-3.112,577.253,20.926,618.194C44.499,658.344,69.185,703.631,115.558,707.792" fill="rgba(28, 136, 142, 0.4)" class="triangle-float1"></path><path d="M1437.152,669.9C1484.191,671.229,1536.974,669.053,1562.535,629.542C1589.682,587.579,1581.505,531.381,1553.575,489.935C1528.549,452.797,1481.925,444.448,1437.152,443.482C1389.981,442.464,1336.955,444.868,1311.69,484.716C1285.18,526.528,1295.697,581.801,1323.466,622.788C1348.126,659.186,1393.205,668.659,1437.152,669.9" fill="rgba(28, 136, 142, 0.4)" class="triangle-float3"></path><path d="M1313.5604391792076 442.76782396088606L1379.1194726175195 623.4253016520832 1489.3373894879246 496.63409217465755z" fill="rgba(28, 136, 142, 0.4)" class="triangle-float3"></path><path d="M1444.897,697.843C1493.682,699.914,1543.653,678.245,1566.244,634.956C1587.614,594.008,1567.343,547.536,1544.199,507.564C1521.123,467.709,1490.872,428.044,1444.897,425.373C1394.991,422.474,1346.565,450.45,1323.375,494.736C1301.548,536.418,1316.017,584.982,1340.174,625.358C1363.536,664.405,1399.436,695.913,1444.897,697.843" fill="rgba(28, 136, 142, 0.4)" class="triangle-float1"></path></g><defs><mask id="SvgjsMask1006"><rect width="1440" height="560" fill="#ffffff"></rect></mask><style>
                @keyframes float1 {
                    0%{transform: translate(0, 0)}
                    50%{transform: translate(-10px, 0)}
                    100%{transform: translate(0, 0)}
                }

                .triangle-float1 {
                    animation: float1 5s infinite;
                }

                @keyframes float2 {
                    0%{transform: translate(0, 0)}
                    50%{transform: translate(-5px, -5px)}
                    100%{transform: translate(0, 0)}
                }

                .triangle-float2 {
                    animation: float2 4s infinite;
                }

                @keyframes float3 {
                    0%{transform: translate(0, 0)}
                    50%{transform: translate(0, -10px)}
                    100%{transform: translate(0, 0)}
                }

                .triangle-float3 {
                    animation: float3 6s infinite;
                }
            </style></defs></svg>