<svg xmlns="http://www.w3.org/2000/svg" version="1.1" xmlns:xlink="http://www.w3.org/1999/xlink" xmlns:svgjs="http://svgjs.dev/svgjs" width="1440" height="560" preserveAspectRatio="none" viewBox="0 0 1440 560"><g mask="url(&quot;#SvgjsMask1000&quot;)" fill="none"><rect width="1440" height="560" x="0" y="0" fill="#0e2a47"></rect><path d="M -753.9567639654533,247 C -657.96,262 -465.96,329 -273.9567639654534,322 C -81.96,315 14.04,197.8 206.04323603454662,212 C 398.04,226.2 494.04,391.8 686.0432360345467,393 C 878.04,394.2 1015.25,203.8 1166.0432360345467,218 C 1316.83,232.2 1385.21,414.8 1440,464" stroke="rgba(51, 121, 194, 0.58)" stroke-width="2"></path><path d="M -451.6855060177602,114 C -355.69,161 -163.69,330.4 28.314493982239792,349 C 220.31,367.6 316.31,207.2 508.3144939822398,207 C 700.31,206.8 796.31,357.8 988.3144939822398,348 C 1180.31,338.2 1377.98,140.4 1468.3144939822398,158 C 1558.65,175.6 1445.66,380.4 1440,436" stroke="rgba(51, 121, 194, 0.58)" stroke-width="2"></path><path d="M -859.5519084208868,92 C -763.55,173.4 -571.55,498.8 -379.55190842088683,499 C -187.55,499.2 -91.55,95.2 100.44809157911317,93 C 292.45,90.8 388.45,481.4 580.4480915791132,488 C 772.45,494.6 888.54,129 1060.4480915791132,126 C 1232.36,123 1364.09,403.6 1440,473" stroke="rgba(51, 121, 194, 0.58)" stroke-width="2"></path><path d="M -808.2382161221702,89 C -712.24,150.8 -520.24,392.4 -328.23821612217023,398 C -136.24,403.6 -40.24,128.6 151.76178387782977,117 C 343.76,105.4 439.76,351.8 631.7617838778298,340 C 823.76,328.2 950.11,36.2 1111.7617838778297,58 C 1273.41,79.8 1374.35,370.8 1440,449" stroke="rgba(51, 121, 194, 0.58)" stroke-width="2"></path></g><defs><mask id="SvgjsMask1000"><rect width="1440" height="560" fill="#ffffff"></rect></mask></defs></svg>